<?xml version="1.0" encoding="utf-8"?>
<!-- Generator: Adobe Illustrator 12.0.1, SVG Export Plug-In . SVG Version: 6.00 Build 51448)  -->
<!DOCTYPE svg PUBLIC "-//W3C//DTD SVG 1.1//EN" "http://www.w3.org/Graphics/SVG/1.1/DTD/svg11.dtd" [
<!ENTITY ns_svg "http://www.w3.org/2000/svg">
<!ENTITY ns_xlink "http://www.w3.org/1999/xlink">
]>
<svg xmlns="http://www.w3.org/2000/svg" xmlns:xlink="http://www.w3.org/1999/xlink" xmlns:svg="http://www.w3.org/2000/svg" xmlns:dc="http://purl.org/dc/elements/1.1/" xmlns:cc="http://web.resource.org/cc/" xmlns:rdf="http://www.w3.org/1999/02/22-rdf-syntax-ns#" version="1.1" id="Layer_1" width="270.1" height="206.996" viewBox="0 0 270.1 206.996" overflow="visible" enable-background="new 0 0 270.1 206.996" xml:space="preserve">
<g>
	<path fill-rule="evenodd" clip-rule="evenodd" fill="#1C1914" d="M82.79,101.291c5.112-0.415,3.32,6.075,7.83,6.263   C88.771,110.958,77.084,105.782,82.79,101.291z"/>
	<path fill-rule="evenodd" clip-rule="evenodd" fill="#EFEEEE" d="M173.601,146.695c6.584,0.943,11.263,2.168,18.788,0   C189.724,150.778,174.515,154.679,173.601,146.695z"/>
	<path fill-rule="evenodd" clip-rule="evenodd" fill="#8E652C" d="M250.319,157.655c0-0.523,0-1.043,0-1.565   c6.691,4.107,4.237-2.103,9.395-3.132c0.004,1.571-1.268,1.864-1.565,3.132c0.345,1.221,1.309,1.82,3.131,1.565   c-0.09,0.955-0.233,1.853-1.565,1.565c0,1.044,0,2.088,0,3.132c-2.292,0.027-4.963-6.603-4.696,0   c-2.004,0.086-2.17,2.007-4.698,1.566C250.319,161.83,250.319,159.743,250.319,157.655z"/>
	<path fill-rule="evenodd" clip-rule="evenodd" fill="#8E652C" d="M62.437-0.479c3.654,0,7.308,0,10.961,0   c-0.487,2.125-3.922,1.3-6.263,1.566C63.89,10.595,77.246,3.5,74.962,12.047c4.311-0.909,6.54-3.898,10.96-4.697   c0.042,1.523,1.916,1.215,3.131,1.566c0.663,3.273-1.073,4.146-1.566,6.263c0.695,1.394,1.375,2.8,3.132,3.131   c2.777-6.325,6.472,4.706,12.525,0c-0.387,1.701-3.113,1.062-3.132,3.132c4.579,6.965,12.395-9.091,7.828,1.566   c1.149,2.788,2.847,0.226,4.698,0c0.288,1.332-0.611,1.477-1.566,1.565c-0.288,1.332,0.609,1.478,1.566,1.566   c-8.229,4.297-12.933,12.118-18.789,18.788c-4.071,4.215-4.722-1.915-9.393-1.566c-0.473,4.125,2.168,5.138,6.263,4.697   c0,0.522,0,1.043,0,1.565c-0.857,2.275,1.829,8.093-1.566,7.829c0.256-1.82-0.346-2.786-1.566-3.132   c-3.114-2.104-7.453-2.985-10.96-4.697c-3.396-4.795-8.813,1.502-14.091,0c1.788,5.917,6.795,2.257,0,6.263   c-0.521,0-1.045,0-1.564,0c0.423-3.313,1.578-10.27-4.698-9.395c-0.408-4.81-3.396-7.041-4.696-10.959   c-2.458,0.673-1.337,4.924-6.263,3.131c0-0.522,0-1.044,0-1.566c3.311-2.299-1.644-3.306-4.698-1.565   c-1.394-3.826-3.649-6.789-3.131-12.525c-5.064-1.935-1.197,5.065-6.263,3.131c-0.134,2.222-0.258,4.434,1.566,4.697   c-0.684,2.324-2.004-0.618-4.697,0c-0.67-5.889,4.898-5.541,6.263-9.394c1.045,0,2.087,0,3.131,0   c3.217,3.048,7.641,4.885,7.829,10.959c4.761-6.398-5.897-10.75-7.829-15.656c6.454-0.226,4.387,6.933,7.829,3.131   c5.112,5.316,0.384,13.477,7.828,14.09c1.778-0.297,0.87-1.57,0-1.565c1.537-4.8,4.178,1.8,6.264,1.565   c-1.099-5.685-8.01-5.56-9.395-10.959c3.772-0.641,3.404,2.859,7.829,1.565c-0.687,10.381,8.883,0.771,9.395,9.394   c4.187,0.464-4.161-6.074,3.131-4.696c-1.677-6.15-6.438-9.219-14.092-9.394c7.029-1.158-1.677-10.209-1.564-3.131   c-5.202-3.314,4.698-4.547,3.131-9.395c4.996-1.342,4.841,2.464,7.829,3.132c4.588-1.326-0.936-5.042,0-7.829   C60.75,1.487,62.56,6.951,57.74,5.784C58.2,2.592,61.977,2.714,62.437-0.479z"/>
	<path fill-rule="evenodd" clip-rule="evenodd" fill="#724B26" d="M59.306-0.479c1.044,0,2.085,0,3.13,0   c-0.46,3.193-4.236,3.07-4.696,6.263c4.819,1.167,3.009-4.297,7.829-3.131c-0.936,2.787,4.588,6.503,0,7.829   c-2.987-0.667-2.833-4.474-7.829-3.132c1.567,4.848-8.333,6.081-3.131,9.395c-0.113-7.078,8.594,1.973,1.564,3.131   c7.653,0.175,12.415,3.244,14.092,9.394c-7.292-1.378,1.056,5.161-3.131,4.696c-0.511-8.623-10.082,0.987-9.395-9.394   c-4.425,1.294-4.057-2.206-7.829-1.565c1.385,5.399,8.296,5.274,9.395,10.959c-2.085,0.235-4.727-6.366-6.264-1.565   c0.87-0.005,1.778,1.269,0,1.565c-7.443-0.614-2.716-8.774-7.828-14.09c-3.442,3.802-1.375-3.357-7.829-3.131   c1.932,4.907,12.59,9.258,7.829,15.656c-0.188-6.074-4.612-7.912-7.829-10.959c-1.044,0-2.086,0-3.131,0c0-1.565,0-3.132,0-4.697   c-4.441-0.267-3.056,5.294-9.394,3.131c0-1.044,0-2.088,0-3.131c2.982-0.672,3.935-3.373,7.829-3.132c0.522,0,1.045,0,1.565,0   c1.542-4.199,9.855-1.626,12.525-4.697c3.254,0.876,3.316,2.442,1.567,4.697c1.854-2.322,5.913-2.435,7.827-4.697   c-0.251-1.834-2.854-1.322-4.696-1.566c-5.348,1.785,5.549-1.205,4.696-4.697C56.87,1.259,57.549-0.147,59.306-0.479z"/>
	<path fill-rule="evenodd" clip-rule="evenodd" fill="#8E652C" d="M49.911,1.087c2.094,1.974,3.075,4.707,6.263,1.565   c0.853,3.493-10.044,6.482-4.696,4.697c1.842,0.244,4.445-0.269,4.696,1.566c-1.914,2.262-5.974,2.375-7.827,4.697   c1.75-2.254,1.688-3.821-1.567-4.697c-2.67,3.07-10.983,0.498-12.525,4.697c1.271-7.079,13.567-3.134,17.223-7.829   c-2.714-5.079-4.102,4.067-9.394,1.566c-0.479-3.61,4.523-1.739,4.696-4.697C47.995,2.302,49.869,2.61,49.911,1.087z"/>
	<path fill-rule="evenodd" clip-rule="evenodd" fill="#724B26" d="M84.357-0.479c6.419-0.156,12.833-0.308,17.222,1.566   c-0.105,5.28-3.579,0.277-6.263,4.697c4.062,2.939,12.814-2.783,18.789-3.131c2.61,0,5.218,0,7.828,0   c4.086,4.34,1.79,11.993,6.262,9.394c0.83,1.26,1.635,2.543,1.567,4.698c-5.727-0.341-6.006-2.151-10.96,0c0-1.566,0-3.132,0-4.698   c-2.773,3.783-7.225,1.108-7.829,9.395c-1.268,0.297-1.561,1.571-3.132,1.566c4.567-10.657-3.249,5.399-7.828-1.566   c0.019-2.07,2.745-1.431,3.132-3.132c-6.053,4.706-9.748-6.325-12.525,0c-1.757-0.331-2.438-1.737-3.132-3.131   c0.493-2.117,2.229-2.99,1.566-6.263c-1.215-0.351-3.089-0.043-3.131-1.566c-4.42,0.799-6.649,3.788-10.96,4.697   C77.246,3.5,63.89,10.595,67.135,1.087c2.341-0.266,5.776,0.559,6.263-1.566c2.609,0,5.218,0,7.827,0   C82.27-0.479,83.312-0.479,84.357-0.479z"/>
	<path fill-rule="evenodd" clip-rule="evenodd" fill="#9E8E6A" d="M114.105,2.653c-5.974,0.348-14.726,6.071-18.789,3.131   c2.684-4.42,6.158,0.583,6.263-4.697C103.855,3.509,109.594,2.467,114.105,2.653z"/>
	<path fill-rule="evenodd" clip-rule="evenodd" fill="#8A7A5C" d="M46.78,2.653c-0.172,2.958-5.175,1.087-4.696,4.697   c5.292,2.501,6.679-6.645,9.394-1.566c-3.656,4.695-15.952,0.75-17.223,7.829c-0.521,0-1.043,0-1.565,0   c0.402-4.125,3.224-5.138-3.131-4.697c2.959-1.737,5.486-3.906,9.394-4.697C42.725,4.859,42.356,1.359,46.78,2.653z"/>
	<path fill-rule="evenodd" clip-rule="evenodd" fill="#8E652C" d="M110.973,21.441c0.604-8.286,5.055-5.611,7.829-9.395   c0,1.566,0,3.132,0,4.698c0,0.521,0,1.043,0,1.565C113.444,19.868,114.098,17.649,110.973,21.441z"/>
	<path fill-rule="evenodd" clip-rule="evenodd" fill="#9E8E6A" d="M121.932,2.653c4.118,1.624,10.217,1.265,9.394,7.829   c-1.267,0.296-1.56,1.571-3.132,1.565C123.722,14.646,126.019,6.993,121.932,2.653z"/>
	<path fill-rule="evenodd" clip-rule="evenodd" fill="#724B26" d="M90.62,49.623c0-0.522,0-1.043,0-1.565   c-4.095,0.441-6.736-0.572-6.263-4.697c4.671-0.349,5.322,5.781,9.393,1.566c0,0.522,0,1.043,0,1.565   C92.051,46.878,92.688,49.605,90.62,49.623z"/>
	<path fill-rule="evenodd" clip-rule="evenodd" fill="#8A7A5C" d="M45.215,43.36c7.44,4.756,10.864-4.92,0-3.131   c0-0.522,0-1.043,0-1.565c4.925,1.793,3.804-2.458,6.263-3.131c1.3,3.918,4.289,6.149,4.696,10.959c-0.521,0-1.045,0-1.564,0   C51.969,49.156,47.573,45.582,45.215,43.36z"/>
	<path fill-rule="evenodd" clip-rule="evenodd" fill="#1C1914" d="M131.326,10.482c0.521,0,1.045,0,1.566,0   c0.088,0.955,0.233,1.854,1.565,1.565c0.876,2.255,2.441,3.821,4.697,4.698c-9.271,1.233-5.259,10.399-15.657,6.263   c-1.906,4.804,0.43,4.679-7.828,3.131c4.496,7.562,20.17,0.769,20.354-6.263c2.255,0.877,3.819,2.442,4.696,4.696   c2.799-6.087,8.296-1.324,12.525,0c3.131,0,6.263,0,9.395,0c2.317,0.815,3.945,2.317,6.262,3.131   c1.31,13.244,0.959,12.931,6.264,18.788c2.554-5.417-4.292-6.911-3.132-14.091c1.821,0.255,2.786-0.346,3.132-1.565   c1.044,0,2.086,0,3.132,0c3.692,0.483,2.912,5.437,7.828,4.697c0.524,2.561,0.201,7.149-3.133,7.828   c-0.861,3.472,2.989,2.229,3.133,4.697c-0.555,2.057-2.757,2.463-3.133,4.697c-0.52,0-1.043,0-1.565,0   c-8.585-1.8-9.212,4.356-12.525,7.829c-3.308,2.957-4.685,7.841-7.827,10.96c-5.052,5.908-6.855,15.064-17.224,15.656   c-1.754-7.212-6.067-2.187-12.525-4.696c2.368-2.212,4.945-7.605,1.566-10.96c-2.125,0.485-1.298,3.921-1.566,6.263   c-8.369-6.455-12.34-7.605-23.485-10.959c-2.939-2.769,1.864-4.571-1.565-7.829c-4.768,6.294-8.23-3.17-14.091-4.697   c2.016-3.691-0.208-2.912,1.565-7.829c0-0.521,0-1.043,0-1.565c5.856-6.67,10.561-14.491,18.789-18.788   c-0.957-0.089-1.854-0.234-1.566-1.566c0.955-0.088,1.854-0.233,1.566-1.565c3.675-0.5,5.875-2.474,10.959-1.566   c0.731-3.341-2.237-2.982-4.697-3.132c0-0.522,0-1.043,0-1.565c4.954-2.151,5.233-0.341,10.96,0   c0.067-2.155-0.737-3.438-1.567-4.698C129.767,12.053,130.06,10.778,131.326,10.482z M148.55,33.966   c-2.435-5.565,5.318-0.944,4.696-4.696c-8.666-4.572-27.3-3.398-26.616,6.263c0.876-2.255,2.441-3.821,4.696-4.697   c0.089,0.955,0.235,1.853,1.566,1.565c0.621,3.752-7.132-0.869-4.698,4.697c3.885,0.23,7.599,0.291,7.83-3.132   c0.521,0,1.045,0,1.564,0c-3.187-7.821,7.265-2.422,3.132-1.565c-2.255,0.877-3.821,2.442-4.696,4.697   c2.085,3.839,4.727-2.822,6.263,1.566c-7.845-1.159,2.083,5.769-3.132,6.263c0.472-4.125-2.169-5.138-6.263-4.698   c-1.753,6.539,8.154,9.472,9.395,7.829c-0.871,0.006-1.778-1.268,0-1.566c0.521,0,1.043,0,1.564,0   c0.877,2.254,2.443,3.821,4.698,4.698c3.462,2.255-1.972,3.819,1.564,4.697c-0.479-3.18,4.525,0.321,4.698,1.566   c-0.87-0.006-1.777,1.269,0,1.565c1.803-1.85,1.771-5.534,1.564-9.395c3.966-1.776,8.877-2.604,10.961-6.263   c-3.639-3.467-4.192-1.382-7.829-3.131c-0.937,4.805-3.799,7.684-9.395,7.829c0-0.522,0-1.043,0-1.566   c2.118-0.492,2.99-2.228,6.263-1.565c-2.649-8.909,15.463-12.008,7.83-15.657c-1.098,3.18-10.074,7.537-14.093,12.525   c-1.497-2.915,4.689-5.233,0-6.262c-0.345,1.22-1.311,1.82-3.131,1.565C146.98,35.527,148.251,35.235,148.55,33.966z"/>
	<path fill-rule="evenodd" clip-rule="evenodd" fill="#443929" d="M134.458,12.047c6.083,2.268,6.194,10.508,17.224,7.829   c-0.443,2.528,1.479,2.695,1.564,4.696c-4.229-1.324-9.727-6.087-12.525,0c-0.877-2.254-2.441-3.819-4.696-4.696   c-0.184,7.032-15.858,13.824-20.354,6.263c8.258,1.548,5.922,1.673,7.828-3.131c10.398,4.136,6.386-5.03,15.657-6.263   C136.9,15.868,135.334,14.302,134.458,12.047z"/>
	<path fill-rule="evenodd" clip-rule="evenodd" fill="#443929" d="M168.903,27.704c2.746,1.431,7.813,0.539,9.396,3.132   c-1.046,0-2.088,0-3.132,0c-0.346,1.22-1.311,1.82-3.132,1.565c-1.16,7.18,5.686,8.674,3.132,14.091   C169.862,40.635,170.212,40.948,168.903,27.704z"/>
	<path fill-rule="evenodd" clip-rule="evenodd" fill="#443929" d="M186.126,48.058c-0.144-2.468-3.994-1.225-3.133-4.697   c3.334-0.679,3.657-5.267,3.133-7.828c2.725-0.118,4.868,0.349,6.263,1.565c0.828,1.259,1.634,2.542,1.564,4.697   c1.926-1.75,3.217-1.363,3.133,1.565c1.392-1.216,3.536-1.683,6.263-1.565c-0.299,1.269-1.57,1.561-1.566,3.132   c-2.856,4.82-8.775-3.146-10.959,1.565C188.294,46.051,188.127,47.972,186.126,48.058z"/>
	<path fill-rule="evenodd" clip-rule="evenodd" fill="#443929" d="M176.732,55.886c-3.61-0.479-1.739,4.524-4.697,4.697   c-0.692-2.275-1.375,0.159-3.132,0c3.313-3.472,3.94-9.629,12.525-7.829C180.281,54.216,178.582,55.127,176.732,55.886z"/>
	<path fill-rule="evenodd" clip-rule="evenodd" d="M161.075,71.543c2.434,7.161-0.186,8.696-1.566,14.091   c2.291,4.603,8.591-3.742,7.829,4.696c-11.087,1.189-9.16-6.64-12.525-6.262c-2.798,2.424-1.042,9.398-4.698,10.959   c0.419,5.637-2.891,7.546-3.131,12.526c-0.829,1.26-1.636,2.542-1.565,4.696c-2.256,0.355-0.546,4.673-3.131,4.697   c5.579,2.42-2.589,13.722-1.566,25.052c-0.13,2.479,0.755,5.972-1.565,6.262c1.23-15.845-4.292-24.933-18.788-25.05   c-0.881-12.006-14.662-7.371-18.789-15.657c-2.993-0.729-6.738,4.826-6.263-1.566c-0.926,5.113-11.215,6.431-15.656,3.133   c-1.089-7.877,2.655-10.913,1.565-18.79c0-0.521,0-1.042,0-1.565c3.351-3.148,4.229-5.378,4.698-14.091   c-1.167-4.819,4.297-3.009,3.131-7.828c0-0.522,0-1.044,0-1.566c0-2.609,0-5.219,0-7.828c3.396,0.264,0.709-5.554,1.566-7.829   c2.068-0.018,1.431-2.745,3.13-3.131c-1.772,4.917,0.451,4.137-1.565,7.829c5.861,1.527,9.324,10.992,14.091,4.697   c3.429,3.258-1.374,5.06,1.565,7.829c11.145,3.354,15.116,4.504,23.485,10.959c0.269-2.342-0.559-5.778,1.566-6.263   c3.379,3.355,0.802,8.748-1.566,10.96c6.458,2.509,10.771-2.516,12.525,4.696C154.22,86.607,156.024,77.451,161.075,71.543z    M90.62,107.554c-4.509-0.188-2.718-6.678-7.83-6.263C77.084,105.782,88.771,110.958,90.62,107.554z"/>
	<path fill-rule="evenodd" clip-rule="evenodd" fill="#C1BB9F" d="M18.599,19.876c0.829-1.26,1.634-2.542,1.565-4.697   c1.823-0.263,1.7-2.475,1.566-4.697c2.086,0,4.174,0,6.262,0c-0.043,1.523-1.915,1.214-3.131,1.565   C19.486,14.864,26.844,21.341,18.599,19.876z"/>
	<path fill-rule="evenodd" clip-rule="evenodd" fill="#8A7A5C" d="M24.861,19.876c6.338,2.163,4.953-3.398,9.394-3.131   c0,1.565,0,3.131,0,4.697c-1.365,3.853-6.933,3.505-6.263,9.394c2.693-0.618,4.014,2.324,4.697,0   c-1.824-0.263-1.7-2.475-1.566-4.697c5.066,1.934,1.198-5.066,6.263-3.131c-0.518,5.736,1.738,8.699,3.131,12.525   c3.054-1.74,8.008-0.733,4.698,1.565C32.823,35.4,22.59,31.54,15.468,24.572C16.024,20.432,23.444,23.157,24.861,19.876z"/>
	<path fill-rule="evenodd" clip-rule="evenodd" fill="#9E8E6A" d="M24.861,19.876c-1.417,3.281-8.837,0.556-9.393,4.696   C22.59,31.54,32.823,35.4,45.215,37.098c0,0.522,0,1.043,0,1.566c0,0.522,0,1.043,0,1.565c10.864-1.789,7.44,7.887,0,3.131   c-0.522,0-1.045,0-1.566,0c-6.362-4.409-9.774-2.823-15.657-6.262c-2.087,0-4.175,0-6.262,0c0.09-4.93-6.066-12.594-7.829-6.263   c-1.834-0.252-1.319-2.855-1.565-4.697c-0.522,0-1.044,0-1.565,0c-1.565,0-3.132,0-4.698,0c0-0.522,0-1.044,0-1.566   c6.06-0.671,5.57-1.714,9.395,1.566c-0.554-2.057-2.757-2.463-3.132-4.697c2.343-0.268,5.778,0.559,6.263-1.565   c8.245,1.465,0.887-5.012,6.262-7.829c0,1.566,0,3.132,0,4.698C24.861,17.788,24.861,18.832,24.861,19.876z"/>
	<path fill-rule="evenodd" clip-rule="evenodd" fill="#6B6453" d="M110.973,21.441c3.125-3.792,2.471-1.573,7.829-3.132   c2.459,0.15,5.428-0.209,4.697,3.132c-5.085-0.908-7.285,1.066-10.959,1.566c-1.851,0.226-3.549,2.788-4.698,0   C109.413,23.013,109.705,21.739,110.973,21.441z"/>
	<path fill-rule="evenodd" clip-rule="evenodd" fill="#6B6453" d="M-0.19,24.572c1.592-1.017,1.62-3.6,4.698-3.131   c-0.255,1.82,0.345,2.786,1.565,3.131c0,0.522,0,1.044,0,1.566c-1.915,7.134,4.294,6.143,3.132,12.525c-0.521,0-1.045,0-1.566,0   C6.246,37.97,4.84,37.29,4.508,35.533C6.749,28.072-2.039,31.641-0.19,24.572z"/>
	<path fill-rule="evenodd" clip-rule="evenodd" fill="#C1BB9F" d="M-0.19,24.572c0.163-8.412,6.799-2.203,12.526-3.131   c0.375,2.234,2.578,2.641,3.132,4.697c-3.825-3.281-3.335-2.238-9.395-1.566c-1.22-0.345-1.82-1.311-1.565-3.131   C1.429,20.973,1.402,23.555-0.19,24.572z"/>
	<path fill-rule="evenodd" clip-rule="evenodd" fill="#8A7A5C" d="M10.77,29.27c0-1.044,0-2.088,0-3.131c0.521,0,1.043,0,1.565,0   c0.246,1.842-0.269,4.444,1.565,4.697c1.763-6.331,7.919,1.333,7.829,6.263c-2.293-1.361-4.962-2.344-4.697-6.263   C14.951,32.868,11.206,32.899,10.77,29.27z"/>
	<path fill-rule="evenodd" clip-rule="evenodd" fill="#443929" d="M150.115,41.795c4.019-4.988,12.995-9.345,14.093-12.525   c7.633,3.649-10.479,6.748-7.83,15.657c-3.272-0.663-4.145,1.073-6.263,1.565c-0.085-2.001-2.006-2.168-1.564-4.697   C149.071,41.795,149.594,41.795,150.115,41.795z"/>
	<path fill-rule="evenodd" clip-rule="evenodd" fill="#8E652C" d="M10.77,29.27c0.436,3.629,4.181,3.598,6.263,1.565   c-0.265,3.918,2.404,4.901,4.697,6.263c2.086,0,4.174,0,6.262,0c1.287,6.021,11.602,3.012,14.092,7.829   c-2.746,1.431-7.813,0.538-9.395,3.131c-2.194-0.554-0.136-2.757,1.565-3.131c-0.235-2.896-5.301-0.961-6.263-3.132   c-1.591,1.018-1.62,3.6-4.696,3.132c-0.006,4.182,4.948,3.402,4.696,7.828c-2.61,0-5.218,0-7.828,0   c-1.393-0.694-2.798-1.374-3.131-3.131c0.662-3.272-1.074-4.146-1.565-6.263C25.134,39.06,6.535,32.817,10.77,29.27z"/>
	<path fill-rule="evenodd" clip-rule="evenodd" fill="#6B6453" d="M132.893,32.401c-1.331,0.288-1.478-0.61-1.566-1.565   c-2.255,0.876-3.82,2.442-4.696,4.697c-0.684-9.661,17.95-10.835,26.616-6.263c0.622,3.752-7.131-0.869-4.696,4.696   c-1.069,1.209-9.329,4.077-7.829-1.565c4.133-0.857-6.318-6.256-3.132,1.565c-0.52,0-1.044,0-1.564,0   C134.756,33.669,134.464,32.396,132.893,32.401z"/>
	<path fill-rule="evenodd" clip-rule="evenodd" fill="#8A7A5C" d="M27.992,37.098c5.883,3.439,9.295,1.853,15.657,6.262   c0,0.522,0,1.044,0,1.566c-0.52,0-1.044,0-1.564,0C39.594,40.11,29.279,43.119,27.992,37.098z"/>
	<path fill-rule="evenodd" clip-rule="evenodd" fill="#8A7A5C" d="M20.164,52.754c2.61,0,5.218,0,7.828,0   c0.251-4.426-4.703-3.646-4.696-7.828c3.077,0.468,3.105-2.114,4.696-3.132c0.961,2.17,6.028,0.236,6.263,3.132   c-1.702,0.374-3.76,2.577-1.565,3.131c0.287,1.332-0.609,1.477-1.566,1.565c-2.125,0.485-1.298,3.92-1.565,6.263   c-2.087,0-4.176,0-6.263,0C22.909,54.186,20.183,54.825,20.164,52.754z"/>
	<path fill-rule="evenodd" clip-rule="evenodd" fill="#443929" d="M140.721,32.401c-1.5,5.643,6.76,2.775,7.829,1.565   c-0.299,1.269-1.57,1.561-1.566,3.132c-4.272-1.141-3.151,3.111-6.263,3.131c0.298,1.778,1.571,0.87,1.566,0   c4.036,0.377-2.15,2.694,0,6.263c-1.778,0.298-0.871,1.572,0,1.566c-1.24,1.643-11.147-1.29-9.395-7.829   c4.094-0.44,6.734,0.572,6.263,4.698c5.215-0.494-4.713-7.422,3.132-6.263c-1.536-4.388-4.178,2.273-6.263-1.566   C136.9,34.843,138.466,33.278,140.721,32.401z"/>
	<path fill-rule="evenodd" clip-rule="evenodd" fill="#6B6453" d="M142.287,46.492c-2.15-3.568,4.036-5.886,0-6.263   c0.005,0.87-1.269,1.778-1.566,0c3.111-0.02,1.99-4.272,6.263-3.131c1.82,0.254,2.786-0.345,3.131-1.565   c4.689,1.029-1.497,3.347,0,6.262c-0.521,0-1.044,0-1.564,0c-1.833-4.66-1.947,5.136-4.698,4.697   C143.33,46.492,142.808,46.492,142.287,46.492z"/>
	<path fill-rule="evenodd" clip-rule="evenodd" fill="#724B26" d="M190.823,46.492c2.184-4.71,8.103,3.255,10.959-1.565   c1.044,0,2.087,0,3.132,0C202.424,50.12,192.108,46.943,190.823,46.492z"/>
	<path fill-rule="evenodd" clip-rule="evenodd" fill="#EFEEEE" d="M217.44,157.655c3.511-1.709,2.752-7.687,6.263-9.395   c0-0.522,0-1.044,0-1.565c0-0.522,0-1.042,0-1.565c-1.061-5.333-5.204,6.897-6.263,1.565c5.17-1.187,3.857-7.736,4.697-9.394   c-0.332-1.757-1.739-2.438-3.133-3.132c-3.888-0.233-6.496,0.809-7.827,3.132c3.999-0.823,5.479-2.076,7.827,1.564   c-3.604,3.702-4.45,10.163-10.96,10.961c-2.169-0.962-0.235-6.028-3.13-6.263c-3.029,1.667-2.183,7.211-4.697,9.394   c-2.17-0.96-0.235-6.026-3.131-6.263c-1.407,4.584-1.407,4.81,0,9.395c5.92-1.249,13.44-2.919,17.222,1.565H217.44z"/>
	<path fill-rule="evenodd" clip-rule="evenodd" fill="#8E652C" d="M43.649,44.927c0-0.522,0-1.044,0-1.566c0.521,0,1.044,0,1.566,0   c2.358,2.222,6.753,5.796,9.395,3.131C53.688,54.119,45.948,45.889,43.649,44.927z"/>
	<path fill-rule="evenodd" clip-rule="evenodd" fill="#443929" d="M150.115,48.058c5.596-0.145,8.458-3.024,9.395-7.829   c3.637,1.75,4.19-0.335,7.829,3.131c-2.084,3.658-6.995,4.487-10.961,6.263c0.206,3.86,0.238,7.545-1.564,9.395   c-1.777-0.297-0.87-1.571,0-1.565c-0.173-1.245-5.177-4.746-4.698-1.566c-3.536-0.877,1.897-2.442-1.564-4.697   C148.205,49.221,146.111,47.989,150.115,48.058z"/>
	<path fill-rule="evenodd" clip-rule="evenodd" fill="#8A7A5C" d="M150.115,48.058c-4.004-0.069-1.909,1.164-1.564,3.132   c-2.255-0.877-3.821-2.443-4.698-4.698c2.751,0.439,2.865-9.356,4.698-4.697c-0.441,2.529,1.479,2.695,1.564,4.697   C150.115,47.014,150.115,47.536,150.115,48.058z"/>
	<path fill-rule="evenodd" clip-rule="evenodd" fill="#8E652C" d="M186.126,48.058c2.001-0.085,2.168-2.007,4.697-1.566   c1.284,0.451,11.601,3.628,14.091-1.565c0.521,0,1.045,0,1.565,0c-0.876,2.254-2.441,3.819-4.697,4.696   c0.828,1.26,1.635,2.542,1.566,4.697c4.295-0.23,8.071-0.292,4.695,3.132c1.046,0,2.088,0,3.133,0c2.323-0.684-0.617-2.004,0-4.698   c3.752,0.622-0.868-7.131,4.696-4.697c2.245,2.292,1.201,4.962-3.131,4.697c1.813,2.317,1.813,3.947,0,6.263   c5.955,2.302,0.308-6.999,6.262-4.697c-3.104,1.07,0.978,9.328-4.696,7.829c-0.901,7.686,9.894,3.675,10.959,9.394   c-2.255-1.752-3.82-1.688-4.697,1.566c2.868,2.761,5.111,11.329,3.133,14.09c-1.826-2.348-4.521-3.828-4.698-7.828   c-2.984,0.668-2.833,4.474-7.827,3.131c0.928-4.995-2.938-4.843,0-7.829c-3.416-0.284-4.982,1.282-4.697,4.698   c-5.495-1.236-1.81-5.477,0-7.829c3.112,2.608,1.99-0.142,6.263,0c-0.466-3.188-3.137-4.17-4.698-6.263   c-4.892-0.48,3.981,4.523-1.564,4.697c-0.299-1.269-1.57-1.561-1.565-3.131c-4.359-0.706,1.227,8.534-3.132,7.828   c-9.597-2.742-8.673-9.801-12.525-15.656c-6.965,1.609,1.108,10.112-4.697,10.96c3.646-1.109,9.888,0.618,6.264,9.394   c2.798,0.44,3.213-1.481,1.565-1.566c0.483-5.205,5.437,6.698,4.697-1.565c5.707,1.186-0.149,4.997,1.565,10.959   c-2.981-0.671-3.936-3.372-7.828-3.131c0.083-3.19-11.035,1.539-3.132-1.565c-0.484-2.126-3.92-1.299-6.264-1.566   c0.829-1.259,1.636-2.542,1.565-4.696c-1.393,0.962-2.798,1.892-3.131,0c6.42-1.258-0.812-6.445,3.131-9.394   c-3.228-1.378-5.931,5.161-3.131,4.697c0,0.522,0,1.043,0,1.566c-2.056-1.879-2.464-0.611-4.696,0   c1.017,1.592,3.601,1.619,3.132,4.696c-2.293-1.361-4.963-2.344-4.697-6.263c5.403,0.512,5.728-8.179,3.131-10.96   c-1.267,0.297-1.562,1.571-3.131,1.566c-0.576,2.664,1.221,2.954,3.131,3.131c-1.147,2.788-2.847,0.225-4.697,0   c0-1.565,0-3.131,0-4.697c2.958-0.173,1.087-5.176,4.697-4.697c0,1.043,0,2.088,0,3.131c3.305-2.762,4.629-3.53,9.395-1.565   c0.068-2.679-1.163-4.055-3.133-4.698C183.369,50.521,185.572,50.115,186.126,48.058z"/>
	<path fill-rule="evenodd" clip-rule="evenodd" fill="#724B26" d="M211.177,52.754c-0.617,2.694,2.323,4.014,0,4.698   c-1.045,0-2.087,0-3.133,0c3.376-3.423-0.4-3.362-4.695-3.132c0.068-2.155-0.738-3.438-1.566-4.697   c2.256-0.877,3.821-2.442,4.697-4.696c1.564,0,3.132,0,4.697,0C211.007,48.821,208.242,49.773,211.177,52.754z"/>
	<path fill-rule="evenodd" clip-rule="evenodd" fill="#E8E8E8" d="M201.79,160.919c-0.004-0.044-0.007-0.088-0.008-0.133   c-6.478,6.253-9.72,7.65-14.091,14.092c-0.521,0-1.045,0-1.565,0c-0.669-2.986-4.474-2.834-3.133-7.828   c-4.782-1.132-5.704,1.601-9.393,1.565c0.641-3.771-2.859-3.404-1.566-7.829c-6.102,3.824-5.292,3.33-7.827,6.264   c-0.522,0-1.046,0-1.566,0c-1.269-0.299-1.561-1.572-3.132-1.565c-3.108-1.898,0.394-5.4,1.566-1.565   c-2.726-3.929-8.133-18.467-9.394-25.053c5.92-2.266,3.003,4.303,7.827,3.133c0.925-6.145-8.596-1.841-6.263-9.395   c5.351-1.175,1.989,6.361,7.829,4.697c2.337-3.403,1.653-9.827,4.697-12.526c2.675,3.878,5.714,2.618,14.09,3.131   c-0.828,1.26-1.635,2.543-1.564,4.698c3.334-2.929,9.969-2.556,12.525-6.263c1.043,0,2.086,0,3.13,0   c-0.27,3.923,3.507,3.801,4.698,6.263c1.592-1.018,1.619-3.601,4.697-3.131c-0.299,1.268-1.57,1.561-1.566,3.131   c5.911,1.332,7.351-5.199,10.96-1.565c1.268,0.298,1.562,1.57,3.131,1.565c1.821-0.256,2.786,0.345,3.131,1.565   c-3.888-0.233-6.496,0.809-7.827,3.132c3.999-0.823,5.479-2.076,7.827,1.564c-3.604,3.702-4.45,10.163-10.96,10.961   c-2.169-0.962-0.235-6.028-3.13-6.263c-3.029,1.667-2.183,7.211-4.697,9.394c-2.17-0.96-0.235-6.026-3.131-6.263   c-1.407,4.584-1.407,4.81,0,9.395c5.92-1.249,13.44-2.919,17.222,1.565c-1.549-0.049-2.642,0.356-3.423,1.074   C210.885,158.729,204.615,160.984,201.79,160.919z M192.389,146.695c-7.525,2.168-12.204,0.943-18.788,0   C174.515,154.679,189.724,150.778,192.389,146.695z"/>
	<path fill-rule="evenodd" clip-rule="evenodd" fill="#724B26" d="M57.74,55.886c-4.766,0.07-6.089-3.305-9.394-4.697   c-0.522,0-1.044,0-1.567,0c-0.548-5.192-9.024-2.458-14.091-3.132c1.582-2.593,6.649-1.7,9.395-3.131c0.521,0,1.045,0,1.564,0   c2.299,0.962,10.039,9.192,10.961,1.565c0.52,0,1.044,0,1.564,0c6.276-0.875,5.122,6.081,4.698,9.395   C59.828,55.886,58.784,55.886,57.74,55.886z"/>
	<path fill-rule="evenodd" clip-rule="evenodd" fill="#9E8E6A" d="M206.48,69.978c5.546-0.174-3.327-5.177,1.564-4.697   c1.562,2.092,4.232,3.075,4.698,6.263c-4.272-0.142-3.15,2.608-6.263,0C206.48,71.021,206.48,70.499,206.48,69.978z"/>
	<path fill-rule="evenodd" clip-rule="evenodd" fill="#9E8E6A" d="M76.528,49.623c3.507,1.712,7.846,2.594,10.96,4.697   c0,2.088,0,4.175,0,6.263c-4.399,0.077-9.683-1.423-6.263-4.697c-1.267,0.297-1.56,1.572-3.13,1.566   c-4.82,1.167-3.009-4.299-7.829-3.132C71.631,52.033,71.509,48.257,76.528,49.623z"/>
	<path fill-rule="evenodd" clip-rule="evenodd" fill="#8A7A5C" d="M76.528,49.623c-5.019-1.366-4.897,2.41-6.262,4.697   c-4.005-0.069-1.91,1.164-1.566,3.132c-2.056-2.01-5.772-2.01-7.827,0c-1.822,0.254-2.786-0.346-3.132-1.566   c1.043,0,2.087,0,3.132,0c0.52,0,1.044,0,1.564,0c6.795-4.006,1.788-0.347,0-6.263C67.715,51.125,73.132,44.828,76.528,49.623z"/>
	<path fill-rule="evenodd" clip-rule="evenodd" fill="#9E8E6A" d="M225.267,71.543c-1.065-5.719-11.86-1.708-10.959-9.394   c5.674,1.499,1.592-6.758,4.696-7.829c-5.954-2.302-0.307,7-6.262,4.697c1.813-2.316,1.813-3.946,0-6.263   c4.332,0.266,5.376-2.404,3.131-4.697c3.918,0.195,4.9,2.989,6.264-1.566c0.521,0,1.044,0,1.565,0   c2.527,2.171,4.958,4.437,7.827,6.263c1.571-0.005,1.863,1.269,3.132,1.566c-0.265,3.919,2.405,4.901,4.697,6.263   c0.086,2.002,2.008,2.168,1.565,4.697c4.115,7.367,6.842,16.122,9.395,25.05c-1.259-0.829-2.543-1.633-4.696-1.565   c-1.393-1.216-3.537-1.684-6.264-1.566c0.552-2.056,2.756-2.462,3.132-4.696c-5.678,4.017-7.729,3.021-12.525,6.262   c0.46,3.263,4.236-2.322,4.696,3.132c-5.75,2.75,1.311,2.864-1.564,4.696c-0.522,0-1.046,0-1.567,0   c-1.521-0.042-1.215-1.916-1.564-3.131c-2.896,0.236-0.963,5.302-3.132,6.263c-4.326-0.37-0.562-8.833-6.264-7.828   c1.149-2.788,2.849-0.226,4.697,0c0.256-1.821-0.344-2.787-1.564-3.132c0-0.521,0-1.043,0-1.566   c1.979-2.761-0.265-11.329-3.133-14.09c2.293-0.027,4.962,6.602,4.697,0c5.149,1.038,3.746,6.194,9.395,3.131   c4.475,0.814-2.527,2.316-3.132,3.131c0.351,2.237,7.794-1.454,12.525,0c-0.359-7.577-4.657-1.496-9.394-4.698   C230.078,75.083,229.851,71.135,225.267,71.543z M226.833,68.412c6.181-0.133,8.512,3.522,12.525,1.566   c-1.824-0.263-1.699-2.475-1.565-4.697c-5.911,0.692-7.349-3.088-10.96-4.697C226.833,63.193,226.833,65.802,226.833,68.412z"/>
	<path fill-rule="evenodd" clip-rule="evenodd" fill="#8A7A5C" d="M78.094,57.452c1.571,0.006,1.863-1.269,3.13-1.566   c-3.42,3.274,1.864,4.773,6.263,4.697c0-2.088,0-4.175,0-6.263c1.22,0.346,1.822,1.312,1.566,3.132c0,2.609,0,5.219,0,7.828   C85.122,62.948,80.43,61.379,78.094,57.452z"/>
	<path fill-rule="evenodd" clip-rule="evenodd" fill="#6B6453" d="M150.115,95.028c2.318-1.812,3.946-1.812,6.263,0   c0.829,1.259,1.636,2.542,1.566,4.697c-8.143-1.881-6.912,5.615-10.96,7.829C147.224,102.574,150.533,100.665,150.115,95.028z"/>
	<path fill-rule="evenodd" clip-rule="evenodd" fill="#C5C6C5" d="M139.156,148.261c2.32-0.29,1.436-3.783,1.565-6.262   c4.157,0.539,5.284,4.11,6.263,7.828c-2.222-0.136-4.434-0.258-4.696,1.564c-1.821,0.255-2.786-0.345-3.132-1.564   C139.156,149.305,139.156,148.783,139.156,148.261z"/>
	<path fill-rule="evenodd" clip-rule="evenodd" fill="#A29D9B" d="M85.923,74.674c-0.469,8.713-1.347,10.943-4.698,14.091   C77.056,83.133,77.729,75.696,85.923,74.674z"/>
	<path fill-rule="evenodd" clip-rule="evenodd" fill="#8A7A5C" d="M176.732,55.886c1.851-0.759,3.549-1.67,4.696-3.132   c0.522,0,1.046,0,1.565,0c1.97,0.643,3.201,2.019,3.133,4.698c-4.766-1.964-6.09-1.197-9.395,1.565   C176.732,57.974,176.732,56.929,176.732,55.886z"/>
	<path fill-rule="evenodd" clip-rule="evenodd" fill="#E8E8E8" d="M49.911,55.886c0-1.043,0-2.088,0-3.132   c-0.956-0.088-1.854-0.234-1.564-1.565c3.305,1.392,4.627,4.767,9.394,4.697c0.346,1.22,1.31,1.82,3.132,1.566   c-5.295,4.098-8.32,10.469-9.395,18.788c-0.521,0-1.045,0-1.566,0C49.911,69.456,49.911,62.671,49.911,55.886z"/>
	<path fill-rule="evenodd" clip-rule="evenodd" fill="#8E652C" d="M68.699,57.452c-0.343-1.968-2.438-3.201,1.566-3.132   c4.819-1.167,3.008,4.298,7.829,3.132c2.335,3.927,7.028,5.496,10.959,7.828c0,0.522,0,1.043,0,1.566   c-1.82-0.254-2.786,0.346-3.131,1.565c-1.486-3.21-3.85-5.544-7.828-6.263C74.27,61.276,74.758,56.091,68.699,57.452z"/>
	<path fill-rule="evenodd" clip-rule="evenodd" fill="#DCDDDC" d="M68.699,112.25c0.862-9.467-4.878-16.732-7.827-28.182   c-0.019-3.795,9.032-6.458,3.131-10.959c5.71-1.596,6.393-8.221,12.524-9.395c-1.081-3.092-4.174-4.174-7.828-4.697   c0-0.522,0-1.043,0-1.565c6.059-1.361,5.571,3.824,9.395,4.697c-0.256,1.82,0.345,2.787,1.565,3.131   c-7.883,3.419,0.747,14.063-9.394,15.656c0.109,6.642,8.83,24.332-1.566,17.223c0.771,5.167,5.177,10.85,4.399,15.754   L68.699,112.25z"/>
	<path fill-rule="evenodd" clip-rule="evenodd" fill="#C5C6C5" d="M73.066,114.116c0.932-4.95-3.584-10.719-4.366-15.957   c10.396,7.109,1.675-10.581,1.566-17.223c10.141-1.593,1.511-12.237,9.394-15.656c-1.22-0.345-1.821-1.311-1.565-3.131   c3.978,0.719,6.342,3.052,7.828,6.263c0.345-1.22,1.311-1.819,3.131-1.565c1.166,4.819-4.298,3.008-3.131,7.828   c-8.194,1.022-8.867,8.459-4.698,14.091c0,0.523,0,1.044,0,1.565c-3.11,2.608-1.99-0.141-6.263,0   c1.415,6.222,5.163,16.631,0,20.355c0.673,2.457,4.926,1.337,3.132,6.262L73.066,114.116z"/>
	<path fill-rule="evenodd" clip-rule="evenodd" fill="#A29D9B" d="M78.094,116.947c1.793-4.925-2.459-3.805-3.132-6.262   c5.163-3.724,1.415-14.133,0-20.355c4.272-0.141,3.152,2.608,6.263,0c1.09,7.876-2.654,10.913-1.565,18.79c0,2.607,0,5.218,0,7.827   C79.139,116.947,78.616,116.947,78.094,116.947z"/>
	<path fill-rule="evenodd" clip-rule="evenodd" fill="#E8E5DC" d="M49.911,88.765c-0.137-3.272-1.358-7.699,1.566-9.394   c0-1.044,0-2.087,0-3.131c1.074-8.319,4.099-14.69,9.395-18.788c2.055-2.01,5.771-2.01,7.827,0c0,0.522,0,1.043,0,1.565   c3.654,0.523,6.747,1.605,7.828,4.697c-6.132,1.173-6.814,7.799-12.524,9.395c5.901,4.5-3.149,7.164-3.131,10.959   c2.949,11.45,8.689,18.715,7.827,28.182C57.021,90.529,49.087,95.721,49.911,88.765z"/>
	<path fill-rule="evenodd" clip-rule="evenodd" fill="#9E8E6A" d="M179.863,73.109c0-0.523,0-1.044,0-1.566   c-2.8,0.464-0.097-6.075,3.131-4.697c-3.943,2.949,3.289,8.136-3.131,9.394C179.863,75.196,179.863,74.152,179.863,73.109z"/>
	<path fill-rule="evenodd" clip-rule="evenodd" fill="#724B26" d="M168.903,60.583c1.757,0.159,2.439-2.275,3.132,0   c0,1.566,0,3.132,0,4.697c1.851,0.225,3.55,2.788,4.697,0c-1.91-0.178-3.707-0.467-3.131-3.131   c1.569,0.005,1.864-1.269,3.131-1.566c2.597,2.781,2.272,11.472-3.131,10.96c-0.266,3.918,2.404,4.901,4.697,6.263   c0.469-3.077-2.115-3.104-3.132-4.696c2.232-0.611,2.641-1.879,4.696,0c0,1.042,0,2.086,0,3.131c0.333,1.892,1.738,0.962,3.131,0   c0.07,2.155-0.736,3.438-1.565,4.696c2.344,0.268,5.779-0.56,6.264,1.566c-7.903,3.104,3.215-1.625,3.132,1.565   c3.444,4.906,5.642,11.059,10.959,14.091c-1.732,4.908-1.011,4.413,3.132,6.262c1.045,0,2.086,0,3.13,0   c0.672,2.982,3.375,3.933,3.133,7.828c2.734-1.439,3.455-4.895,3.131-9.395c-7.461,4.965-2.154-5.579-7.828-6.262   c-0.299-1.268-1.57-1.56-1.565-3.131c2.027-5.871-4.417-11.348-3.132-18.788c4.358,0.706-1.228-8.533,3.132-7.828   c-0.005,1.57,1.267,1.863,1.565,3.131c0,0.521,0,1.043,0,1.565c-1.81,2.352-5.495,6.593,0,7.829   c-0.285-3.416,1.281-4.981,4.697-4.698c-2.938,2.986,0.928,2.834,0,7.829c4.994,1.342,4.843-2.463,7.827-3.131   c0.177,4,2.872,5.48,4.698,7.828c0,0.522,0,1.044,0,1.566c-3.638-4.155-4.191,4.157-7.829,0c0.694,1.394,1.376,2.8,3.131,3.132   c-0.638,3.899-6.069,0.093-4.696-3.132c-5.188,4.786,5.213,7.225,3.132,14.09c3.692-2.016,2.913,0.206,7.827-1.564   c-2.224,2.023-7.437,6.478-1.564,7.829c3.728,3.412-3.199-0.783-6.263,0c-1.078,4.209,3.236,3.023,4.697,4.696   c0,0.521,0,1.045,0,1.564c-0.377,4.038-2.693-2.149-6.264,0c0.043,1.524,1.916,1.216,3.131,1.566c-0.387,1.971-3.111,1.58-3.131,0   c-4.393,1.566-0.158,7.241,1.566,7.828c-0.431,5.495-5.835-3.928-6.263,1.566c-3.61,0.479-1.738-4.523-4.697-4.696   c0.684-2.324,2.005,0.617,4.697,0c-0.299-1.27-1.571-1.562-1.565-3.132c-0.885-5.062-14.926-13.277-10.96-4.697   c-1.394-0.695-2.8-1.375-3.133-3.131c2.033-2.083,2.064-5.827-1.565-6.264c-2.192,0.555-0.136,2.757,1.565,3.132   c-3.729,0.624-13.45-3.75-18.787-3.132c-3.581-1.638-5.547-4.891-10.959-4.697c-2.714-1.983-4.104-5.292-9.396-4.697   c-2.316-1.812-3.944-1.812-6.263,0c3.656-1.562,1.9-8.536,4.698-10.959c3.365-0.378,1.438,7.451,12.525,6.262   c0.762-8.438-5.538-0.094-7.829-4.696c1.381-5.396,4-6.93,1.566-14.091C164.218,68.424,165.595,63.54,168.903,60.583z    M164.207,77.806c2.224,2.993,5.947,4.491,6.261,9.394c-2.435-0.125-1.084,4.553,0,1.566c-0.263-3.542,7.528-6.885,3.133-9.394   c-0.176,7.316-2.871-1.113-4.698-1.566c0.411-5.109-4.868-4.523-6.262-7.828C160.603,76.158,168.385,73.766,164.207,77.806z    M172.034,93.462c-0.019,2.07-2.744,1.432-3.132,3.131c3.274,0.901,4.469,3.881,9.396,3.132c0.566-2.946,3.373-7.248-1.566-9.395   C175.563,93.789,176.872,99.51,172.034,93.462z"/>
	<path fill-rule="evenodd" clip-rule="evenodd" fill="#8E652C" d="M226.833,60.583c3.611,1.609,5.049,5.39,10.96,4.697   c-0.134,2.222-0.259,4.434,1.565,4.697c-4.014,1.957-6.345-1.699-12.525-1.566C226.833,65.802,226.833,63.193,226.833,60.583z"/>
	<path fill-rule="evenodd" clip-rule="evenodd" fill="#C5C6C5" d="M176.732,104.422c5.337-0.618,15.058,3.756,18.787,3.132   c-1.701-0.375-3.758-2.577-1.565-3.132c3.63,0.437,3.599,4.181,1.565,6.264c-3.838-3.962-11.577,0.641-10.959-4.698   c-3.918-0.265-4.9,2.405-6.262,4.698C176.173,110.2,176.999,106.765,176.732,104.422z"/>
	<path fill-rule="evenodd" clip-rule="evenodd" fill="#C5C6C5" d="M156.377,95.028c5.292-0.595,6.682,2.714,9.396,4.697   c-6.475,0.282-6.299-3.68-4.697,3.13c-3.192-2.732-3.071,1.168-6.263-1.564c-3.396-0.264-0.71,5.553-1.566,7.829   c-2.057,1.596-5.771,1.534-7.828,3.13c-0.07-2.154,0.736-3.437,1.565-4.696c4.048-2.214,2.817-9.709,10.96-7.829   C158.013,97.57,157.206,96.287,156.377,95.028z"/>
	<path fill-rule="evenodd" clip-rule="evenodd" fill="#8E652C" d="M164.207,77.806c1.565,0,3.131,0,4.695,0   c1.827,0.453,4.522,8.882,4.698,1.566c4.396,2.509-3.396,5.851-3.133,9.394c-1.084,2.987-2.435-1.69,0-1.566   C170.155,82.296,166.431,80.798,164.207,77.806z"/>
	<path fill-rule="evenodd" clip-rule="evenodd" fill="#443929" d="M176.732,90.331c4.939,2.147,2.133,6.448,1.566,9.395   c-4.927,0.75-6.121-2.23-9.396-3.132c0.388-1.7,3.113-1.062,3.132-3.131C176.872,99.51,175.563,93.789,176.732,90.331z"/>
	<path fill-rule="evenodd" clip-rule="evenodd" fill="#9E8E6A" d="M164.207,77.806c4.178-4.04-3.604-1.647-1.566-7.828   c1.394,3.305,6.673,2.719,6.262,7.828C167.338,77.806,165.773,77.806,164.207,77.806z"/>
	<path fill-rule="evenodd" clip-rule="evenodd" fill="#8E652C" d="M222.137,113.816c-1.461-1.673-5.775-0.487-4.697-4.696   c3.063-0.783,9.99,3.412,6.263,0c-5.872-1.352-0.659-5.806,1.564-7.829c-4.914,1.771-4.135-0.451-7.827,1.564   c2.081-6.865-8.32-9.304-3.132-14.09c-1.373,3.225,4.059,7.031,4.696,3.132c-1.755-0.332-2.437-1.738-3.131-3.132   c3.638,4.157,4.191-4.155,7.829,0c1.221,0.345,1.82,1.311,1.564,3.132c-1.849-0.226-3.548-2.788-4.697,0   c5.702-1.004,1.938,7.458,6.264,7.828c2.169-0.961,0.236-6.027,3.132-6.263c0.35,1.215,0.043,3.089,1.564,3.131   c0.663,3.273-1.073,4.147-1.564,6.262c2.766,2.621-1.391,5.247,0,10.961C226.983,110.881,226.03,113.646,222.137,113.816z"/>
	<path fill-rule="evenodd" clip-rule="evenodd" fill="#9E8E6A" d="M201.782,74.674c-1.285,7.44,5.159,12.917,3.132,18.788   c-2.759-1.416-2.587-5.763-6.263-6.263c-0.55,5.44,7.961,5.945,3.131,10.96c-5.317-3.033-7.515-9.186-10.959-14.091   c3.893-0.241,4.847,2.46,7.828,3.131c-1.715-5.962,4.142-9.773-1.565-10.959c0.739,8.264-4.214-3.639-4.697,1.565   c1.647,0.085,1.232,2.006-1.565,1.566c3.624-8.776-2.618-10.503-6.264-9.394c5.806-0.848-2.268-9.351,4.697-10.96   C193.11,64.873,192.186,71.932,201.782,74.674z"/>
	<path fill-rule="evenodd" clip-rule="evenodd" fill="#8E652C" d="M234.661,76.24c0-0.522,0-1.044,0-1.566   c4.736,3.202,9.034-2.879,9.394,4.698c-4.731-1.454-12.175,2.237-12.525,0C232.134,78.556,239.136,77.055,234.661,76.24z"/>
	<path fill-rule="evenodd" clip-rule="evenodd" fill="#8E652C" d="M234.661,91.897c-0.46-5.454-4.236,0.131-4.696-3.132   c4.797-3.241,6.848-2.246,12.525-6.262c-0.376,2.234-2.58,2.641-3.132,4.696c2.727-0.118,4.871,0.35,6.264,1.566   c-0.254,1.835-2.854,1.32-4.698,1.565c-0.919,5.498,7.4,5.15,3.131,9.395c-1.826-2.348-4.521-3.829-4.696-7.828   C237.793,91.897,236.228,91.897,234.661,91.897z"/>
	<path fill-rule="evenodd" clip-rule="evenodd" fill="#8E652C" d="M201.782,98.16c4.83-5.016-3.681-5.521-3.131-10.96   c3.676,0.5,3.504,4.847,6.263,6.263c-0.005,1.572,1.267,1.864,1.565,3.131c0.5,3.631-0.253,6.012-1.565,7.829   C200.772,102.572,200.05,103.067,201.782,98.16z"/>
	<path fill-rule="evenodd" clip-rule="evenodd" fill="#8A7A5C" d="M234.661,91.897c1.566,0,3.132,0,4.697,0   c0.176,4,2.87,5.48,4.696,7.828c4.27-4.245-4.05-3.897-3.131-9.395c1.844-0.245,4.444,0.27,4.698-1.565   c2.153-0.068,3.438,0.737,4.696,1.565c0.351,1.215,0.043,3.089,1.565,3.131c-0.035,3.689,2.696,4.61,1.565,9.394   c0.036,3.689-2.696,4.611-1.565,9.395c1.537,2.116,4.177,3.129,6.264,4.697c0,0.522,0,1.044,0,1.566c0,0.521,0,1.043,0,1.565   c-3.275-0.974-5.887-8.03-7.829-1.565c-2.959-1.174-1.088-4.675-4.696-1.566c-0.938-4.068,0.628-5.635,4.696-4.697   c1.142-4.271-3.111-3.15-3.131-6.263c-1.633-3.586-7.198-3.239-6.264-9.394c-3.632-0.498-6.01,0.252-7.827,1.566   c0-0.522,0-1.044,0-1.566C235.972,94.761,228.911,94.647,234.661,91.897z"/>
	<path fill-rule="evenodd" clip-rule="evenodd" fill="#DCDDDC" d="M145.418,112.25c2.057-1.596,5.771-1.534,7.828-3.13   c0.856-2.276-1.829-8.093,1.566-7.829c3.191,2.732,3.07-1.168,6.263,1.564c-1.602-6.81-1.777-2.849,4.697-3.13   c5.412-0.194,7.378,3.059,10.959,4.697c0.268,2.343-0.559,5.778,1.566,6.264c1.361-2.293,2.344-4.963,6.262-4.698   c-0.618,5.339,7.121,0.736,10.959,4.698c0.333,1.756,1.739,2.436,3.133,3.131c3.016,2.203,6.3,4.138,10.96,4.697   c-0.006,1.569,1.267,1.862,1.565,3.132c-2.692,0.617-4.014-2.324-4.697,0c2.959,0.173,1.087,5.176,4.697,4.696   c0.46,3.192,4.236,3.069,4.696,6.263c-1.569,0.005-1.863-1.268-3.131-1.565c-1.91-6.288-12.111-7.792-18.789-4.697   c-1.044,0-2.087,0-3.13,0c-11.005-4.147,8.694-1.145,14.091-4.696c-1.093-4.128-7.129-3.311-7.828-7.829   c0.952,9.562-6.102-5.236-9.395,4.697c-2.764,0.499-2.794-8.771,1.565-6.264c-3.782-2.452-14.127-0.932-18.789,1.566   c-3.758-1.458-4.145-6.292-10.959-4.696c-6.103,3.291-4.846,13.942-12.525,15.655c1.843,14.692,2.005,23,9.394,39.144   c-7.297,1.371,2.159-4.062-3.131-4.698c0-1.042,0-2.089,0-3.131c-5.591,3.076-8.593-0.488-10.959-4.698   c0.263-1.822,2.475-1.7,4.696-1.564c-0.979-3.718-2.105-7.289-6.263-7.828c-1.022-11.33,7.146-22.632,1.566-25.052   C144.872,116.923,143.162,112.605,145.418,112.25z"/>
	<path fill-rule="evenodd" clip-rule="evenodd" fill="#9E8E6A" d="M258.148,116.947c-2.087-1.568-4.727-2.581-6.264-4.697   c-1.131-4.783,1.602-5.705,1.565-9.395c1.463,1.147,2.371,2.848,3.132,4.698C255.45,112.337,258.182,113.259,258.148,116.947z"/>
	<path fill-rule="evenodd" clip-rule="evenodd" fill="#8E652C" d="M240.924,104.422c2.809-0.199,3.303,1.917,6.264,1.565   c0.02,3.112,4.272,1.991,3.131,6.263c-4.068-0.938-5.634,0.629-4.696,4.697c-4.194-4.855-5.953,4.106-9.395,0   c1.322-3.374,6.866-2.525,9.395-4.697c0.284-3.415-1.282-4.98-4.698-4.696C240.924,106.51,240.924,105.466,240.924,104.422z"/>
	<path fill-rule="evenodd" clip-rule="evenodd" fill="#E8E5DC" d="M156.377,163.919c-7.389-16.144-7.551-24.451-9.394-39.144   c7.68-1.713,6.423-12.364,12.525-15.655c6.814-1.596,7.201,3.238,10.959,4.696c4.662-2.498,15.007-4.019,18.789-1.566   c-4.359-2.508-4.329,6.763-1.565,6.264c3.293-9.934,10.347,4.865,9.395-4.697c0.699,4.519,6.735,3.701,7.828,7.829   c-5.396,3.552-25.096,0.549-14.091,4.696c-2.557,3.707-9.191,3.334-12.525,6.263c-0.07-2.155,0.736-3.438,1.564-4.698   c-8.376-0.513-11.415,0.747-14.09-3.131c-3.044,2.699-2.36,9.123-4.697,12.526c-5.84,1.664-2.479-5.872-7.829-4.697   c-2.333,7.554,7.188,3.25,6.263,9.395c-4.824,1.17-1.907-5.398-7.827-3.133c1.261,6.586,6.668,21.124,9.394,25.053   c-1.173-3.835-4.675-0.333-1.566,1.565c-0.521,0-1.044,0-1.565,0C156.612,165.771,156.467,164.872,156.377,163.919z"/>
	<path fill-rule="evenodd" clip-rule="evenodd" fill="#9E8E6A" d="M236.228,104.422c1.794-4.924-2.46-3.804-3.131-6.262   c1.817-1.314,4.195-2.064,7.827-1.566c-0.935,6.155,4.631,5.808,6.264,9.394c-2.961,0.352-3.455-1.765-6.264-1.565   c-1.268,0.297-1.562,1.57-3.131,1.565C238.082,104.656,237.184,104.511,236.228,104.422z"/>
	<path fill-rule="evenodd" clip-rule="evenodd" fill="#8A7A5C" d="M240.924,104.422c0,1.044,0,2.088,0,3.132   c-2.809-0.199-3.302,1.915-6.263,1.566c-0.255,1.818,0.346,2.785,1.566,3.13c0.62,3.752-7.131-0.868-4.698,4.697   c-1.043,0-2.086,0-3.131,0c-1.536-4.386-4.177,2.273-6.262-1.566c0-0.52,0-1.043,0-1.564c3.893-0.171,4.846-2.936,7.828,0   c-1.391-5.714,2.766-8.34,0-10.961c1.268,0.298,1.56,1.572,3.132,1.566c0.64,3.771-2.86,3.403-1.567,7.828   c1.843-2.332,3.932-4.419,6.264-6.263C239.363,105.992,239.656,104.719,240.924,104.422z"/>
	<path fill-rule="evenodd" clip-rule="evenodd" fill="#B0A789" d="M231.53,116.947c-2.433-5.565,5.318-0.945,4.698-4.697   c-1.221-0.345-1.821-1.312-1.566-3.13c2.961,0.349,3.454-1.766,6.263-1.566c3.416-0.284,4.982,1.281,4.698,4.696   c-2.528,2.172-8.072,1.323-9.395,4.697C234.964,118.033,231.94,119.384,231.53,116.947z"/>
	<path fill-rule="evenodd" clip-rule="evenodd" fill="#6B6453" d="M198.652,113.816c-3.966-8.58,10.075-0.364,10.96,4.697   C204.951,117.954,201.667,116.02,198.652,113.816z"/>
	<path fill-rule="evenodd" clip-rule="evenodd" fill="#9E8E6A" d="M237.793,121.646c-1.333,0.286-1.479-0.612-1.565-1.566   c-3.003,0.175,1.839,5.243,0,9.395c-1.566,0-3.131,0-4.698,0c4.989-7.651-6.466-8.128-3.131-12.526c1.045,0,2.088,0,3.131,0   c0.41,2.437,3.435,1.086,4.698,0c3.441,4.106,5.2-4.855,9.395,0c3.608-3.108,1.737,0.393,4.696,1.566   c1.942-6.465,4.554,0.592,7.829,1.565c0,1.566,0,3.132,0,4.696c-1.822-0.254-2.785,0.347-3.131,1.566   c-4.001,3.104-7.201-1.625-9.395,1.564c-1.522-0.042-1.217-1.916-1.567-3.131c-0.254-1.819,0.346-2.785,1.567-3.13   C245.247,121.123,239.801,118.644,237.793,121.646z"/>
	<path fill-rule="evenodd" clip-rule="evenodd" fill="#9E8E6A" d="M248.753,156.09c2.323-0.683-0.618-2.005,0-4.698   c4.426-1.292,4.055,2.207,7.828,1.566c-1.96-10.804-11.643-4.168-12.526-15.656c3.343,0.73,2.983-2.237,3.133-4.697   c1.522,0.043,1.214,1.917,1.565,3.131c1.834-0.253,1.318-2.854,1.565-4.696c0.521,0,1.044,0,1.565,0c1.84,3.553,9.164,6.61,4.697,0   c4.948-0.772,0.58,7.769,6.264,6.263c0,0.521,0,1.044,0,1.564c-6.898-0.055-1.7,9.732,1.563,9.395c0,0.522,0,1.044,0,1.566   c-0.682,2.324-2.003-0.618-4.695,0c1.215,1.394,1.683,3.535,1.565,6.263c5.986-6.489-1.305,2.15,4.696,1.565   c0.829,1.259,1.634,2.542,1.567,4.697c1.312,1.817,2.064,4.196,1.564,7.828c-1.564,0-3.132,0-4.698,0   c-0.899,2.752,1.894,9.198-1.563,9.394c-2.608-4.178,0.419-13.989-6.264-14.09c-0.299-1.27-1.57-1.562-1.564-3.132   c-0.267-6.603,2.404,0.027,4.696,0c0-1.044,0-2.088,0-3.132c1.332,0.287,1.476-0.61,1.565-1.565   c-1.822,0.255-2.786-0.345-3.131-1.565c0.298-1.268,1.569-1.561,1.565-3.132c-5.157,1.029-2.703,7.239-9.395,3.132   c0,0.522,0,1.042,0,1.565C248.986,157.943,248.841,157.044,248.753,156.09z"/>
	<path fill-rule="evenodd" clip-rule="evenodd" fill="#724B26" d="M236.228,152.958c1.267-0.297,1.562-1.57,3.131-1.566   c0.693,1.395,1.375,2.801,3.132,3.133c4.102,4.866,1.966,6.291,3.132,14.091c-1.836-0.254-1.322-2.855-1.567-4.696   c-1.268,0.296-1.56,1.57-3.131,1.565c-0.246-1.843,0.268-4.444-1.565-4.698c-0.216-2.916-1.029-5.232-3.131-6.262   C236.228,154.002,236.228,153.48,236.228,152.958z"/>
	<path fill-rule="evenodd" clip-rule="evenodd" fill="#8E652C" d="M239.359,151.392c-6.083-6.962-14.624-11.47-17.222-21.918   c-1.26,0.829-2.542,1.633-4.697,1.565c-1.496-2.916,4.688-5.233,0-6.264c-1.725-0.587-5.959-6.262-1.566-7.828   c0.02,1.58,2.744,1.971,3.131,0c-1.215-0.351-3.088-0.042-3.131-1.566c3.57-2.149,5.887,4.038,6.264,0   c2.085,3.84,4.726-2.819,6.262,1.566c-3.335,4.398,8.12,4.875,3.131,12.526c1.567,0,3.132,0,4.698,0   c1.839-4.151-3.003-9.22,0-9.395c0.087,0.954,0.232,1.853,1.565,1.566c-1.142,4.271,3.111,3.15,3.131,6.261   c1.7-0.386,1.064-3.112,3.131-3.131c0.351,1.215,0.045,3.089,1.567,3.131c2.193-3.189,5.394,1.539,9.395-1.564   c0,0.521,0,1.045,0,1.564c-1.394,0.695-2.801,1.376-3.133,3.133c-0.521,0-1.044,0-1.565,0c-4.015-0.31-12.13-3.549-12.525,4.696   c1.535,4.388,4.177-2.274,6.262,1.566c0.884,11.488,10.566,4.853,12.526,15.656c-3.773,0.641-3.402-2.858-7.828-1.566   c-0.618,2.693,2.323,4.016,0,4.698c-2.809,0.198-3.304-1.918-6.263-1.565C240.734,154.192,240.052,152.786,239.359,151.392z"/>
	<path fill-rule="evenodd" clip-rule="evenodd" fill="#B0A789" d="M237.793,121.646c2.008-3.002,7.454-0.522,7.829,0   c-1.222,0.345-1.821,1.311-1.567,3.13c-2.066,0.019-1.431,2.745-3.131,3.131C240.905,124.796,236.652,125.917,237.793,121.646z"/>
	<path fill-rule="evenodd" clip-rule="evenodd" fill="#E8E5DC" d="M193.953,126.342c6.678-3.095,16.879-1.591,18.789,4.697   c-3.609-3.634-5.049,2.897-10.96,1.565c-0.004-1.57,1.268-1.863,1.566-3.131c-3.078-0.47-3.105,2.113-4.697,3.131   C197.46,130.143,193.684,130.265,193.953,126.342z"/>
	<path fill-rule="evenodd" clip-rule="evenodd" fill="#E8E5DC" d="M186.126,174.878c-3.865-11.767-17.872,1.819-21.919-7.828   c2.535-2.934,1.726-2.439,7.827-6.264c-1.293,4.425,2.207,4.058,1.566,7.829c3.688,0.035,4.61-2.697,9.393-1.565   C181.653,172.044,185.457,171.892,186.126,174.878z"/>
	<path fill-rule="evenodd" clip-rule="evenodd" fill="#C1BB9F" d="M256.581,131.039c0.255-1.82-0.346-2.786-1.564-3.133   c0-0.52,0-1.043,0-1.564c0.346-1.22,1.309-1.82,3.131-1.566c0-1.564,0-3.13,0-4.696c0-0.522,0-1.044,0-1.565   c0.52,0,1.043,0,1.565,0c0.854,2.274-1.831,8.092,1.565,7.828c0.9,2.752-1.892,9.198,1.566,9.394c0,0.522,0,1.043,0,1.566   C257.161,138.808,261.53,130.267,256.581,131.039z"/>
	<path fill-rule="evenodd" clip-rule="evenodd" fill="#B0A789" d="M244.055,137.302c-2.085-3.841-4.727,2.821-6.262-1.566   c0.396-8.245,8.511-5.006,12.525-4.696c-0.247,1.843,0.269,4.443-1.565,4.696c-0.352-1.214-0.043-3.088-1.565-3.131   C247.038,135.064,247.398,138.032,244.055,137.302z"/>
	<path fill-rule="evenodd" clip-rule="evenodd" fill="#B0A789" d="M262.845,138.866c-0.136,2.223-0.26,4.436,1.563,4.698   c0,1.565,0,3.131,0,4.696C261.145,148.599,255.947,138.812,262.845,138.866z"/>
	<path fill-rule="evenodd" clip-rule="evenodd" fill="#DFDBC9" d="M223.702,146.695c0-0.522,0-1.042,0-1.565   c-1.061-5.333-5.204,6.897-6.263,1.565c5.17-1.187,3.857-7.736,4.697-9.394c3.315,3.47,6.076,7.49,9.393,10.959   c-1.267-0.298-1.56-1.571-3.131-1.565C227.251,143.906,225.552,146.47,223.702,146.695z"/>
	<path fill-rule="evenodd" clip-rule="evenodd" fill="#B0A789" d="M265.975,157.655c-6.001,0.585,1.29-8.055-4.696-1.565   c0.117-2.728-0.351-4.869-1.565-6.263c2.692-0.618,4.014,2.324,4.695,0c0.522,0,1.046,0,1.566,0   C265.975,152.437,265.975,155.046,265.975,157.655z"/>
	<path fill-rule="evenodd" clip-rule="evenodd" fill="#8A7A5C" d="M245.622,168.615c-1.166-7.8,0.97-9.225-3.132-14.091   c2.959-0.353,3.454,1.764,6.263,1.565c0.088,0.954,0.232,1.854,1.565,1.565c0,2.088,0,4.175,0,6.264   c2.528,0.44,2.694-1.48,4.698-1.566c-0.006,1.57,1.266,1.862,1.564,3.132c-2.678-0.069-4.056,1.162-4.697,3.131   c0.388,1.969,3.114,1.579,3.133,0c3.893,0.234,0.456,5.301,0,6.263c-4.592,1.802-5.815-7.51-7.829-3.132c-0.522,0-1.046,0-1.565,0   C245.622,170.703,245.622,169.657,245.622,168.615z"/>
	<path fill-rule="evenodd" clip-rule="evenodd" fill="#443929" d="M240.924,165.484c1.571,0.005,1.863-1.27,3.131-1.565   c0.245,1.841-0.269,4.442,1.567,4.696c0,1.042,0,2.088,0,3.131c-0.329,2.678,2.669,4.057,0,4.698   c-2.755-0.378-3.569-2.694-3.132-6.264C242.405,168.181,240.483,168.013,240.924,165.484z"/>
	<path fill-rule="evenodd" clip-rule="evenodd" fill="#8E652C" d="M247.188,171.746c2.014-4.378,3.237,4.934,7.829,3.132   c0.456-0.962,3.893-6.028,0-6.263c-0.019,1.579-2.745,1.969-3.133,0c0.642-1.969,2.02-3.2,4.697-3.131   c6.683,0.101,3.655,9.912,6.264,14.09c-0.522,0-1.046,0-1.566,0c1.453-6.794-9.447-4.852-7.829,1.565   C249.097,180.274,249.066,175.087,247.188,171.746z"/>
	<path fill-rule="evenodd" clip-rule="evenodd" fill="#724B26" d="M247.188,171.746c1.878,3.341,1.909,8.528,6.262,9.394   c-1.618-6.417,9.282-8.359,7.829-1.565c-3.537,0.876,1.896,2.441-1.565,4.696c-6.586,1.891-6.866-2.528-10.96-3.131   c-0.554-2.056-2.758-2.462-3.131-4.695c2.669-0.642-0.329-2.021,0-4.698C246.142,171.746,246.665,171.746,247.188,171.746z"/>
	<path fill-rule="evenodd" clip-rule="evenodd" fill="#B0A789" d="M269.107,170.181c1.85,8.632-2.699,10.87-3.132,17.224   c-2.326-1.328-2.265-5.042-3.13-7.83c3.457-0.195,0.664-6.642,1.563-9.394C265.975,170.181,267.542,170.181,269.107,170.181z"/>
	<path fill-rule="evenodd" clip-rule="evenodd" fill="#8A7A5C" d="M261.279,179.574c0.521,0,1.044,0,1.566,0   c0.865,2.788,0.804,6.502,3.13,7.83c-2.157,2.018-1.548,6.801-1.566,10.958c-0.087,0.955-0.232,1.854-1.563,1.567   c0-2.09,0-4.177,0-6.264c-1.149-1.463-2.848-2.373-4.697-3.131c0.886-1.463,4.353-2.373,1.565-3.131c0-1.044,0-2.089,0-3.134   C263.175,182.016,257.741,180.45,261.279,179.574z"/>
	<path fill-rule="evenodd" clip-rule="evenodd" fill="#724B26" d="M251.884,187.404c2.057-2.01,5.772-2.01,7.829,0   c2.787,0.758-0.68,1.668-1.565,3.131c1.85,0.758,3.548,1.668,4.697,3.131c-3.463,5.515-3.92-6.65-6.264-1.565   c-0.521,0-1.044,0-1.564,0C255.876,188.63,252.027,189.871,251.884,187.404z"/>
	<path fill-rule="evenodd" clip-rule="evenodd" fill="#B0A789" d="M59.306-2.044c2.085,0,4.175,0,6.263,0   c4.76,0.981,13.487-2.004,15.656,1.565c-2.609,0-5.218,0-7.827,0c-3.654,0-7.308,0-10.961,0c-1.045,0-2.086,0-3.13,0   C59.306-1,59.306-1.521,59.306-2.044z"/>
	<path fill-rule="evenodd" clip-rule="evenodd" fill="#6B6453" d="M151.682,19.876c4.161,1.058,7.973,2.464,10.959,4.696   c-3.132,0-6.264,0-9.395,0C153.161,22.571,151.239,22.404,151.682,19.876z"/>
	<path fill-rule="evenodd" clip-rule="evenodd" fill="#443929" d="M136.025,33.966c-0.231,3.422-3.945,3.362-7.83,3.132   c-2.434-5.566,5.319-0.945,4.698-4.697C134.464,32.396,134.756,33.669,136.025,33.966z"/>
	<path fill-rule="evenodd" clip-rule="evenodd" fill="#8A7A5C" d="M192.389,37.098c7.349,1.522,11.411,6.335,20.354,6.262   c0.521,0,1.043,0,1.565,0c0.29,2.319,3.784,1.436,6.262,1.566c0.957,0.088,1.855,0.233,1.567,1.565   c-1.363,4.555-2.346,1.761-6.264,1.566c-5.564-2.434-0.944,5.318-4.696,4.697c-2.935-2.981-0.17-3.933,0-7.828   c-1.565,0-3.133,0-4.697,0c-0.521,0-1.045,0-1.565,0c-1.045,0-2.088,0-3.132,0c-0.004-1.571,1.268-1.863,1.566-3.132   c-2.727-0.117-4.871,0.35-6.263,1.565c0.084-2.929-1.207-3.315-3.133-1.565C194.023,39.64,193.217,38.357,192.389,37.098z"/>
	<path fill-rule="evenodd" clip-rule="evenodd" fill="#9E8E6A" d="M17.033,49.623c-4.106-1.114-1.5-8.938-6.263-9.394   c-1.215-0.35-3.089-0.043-3.132-1.565c0.521,0,1.045,0,1.566,0c2.994,0.659,6.737,0.567,6.263,4.696   C15.959,45.478,17.695,46.351,17.033,49.623z"/>
	<path fill-rule="evenodd" clip-rule="evenodd" fill="#C1BB9F" d="M234.661,76.24c-5.648,3.063-4.245-2.093-9.395-3.131   c0.265,6.602-2.404-0.027-4.697,0c0.877-3.255,2.442-3.318,4.697-1.566c4.584-0.408,4.812,3.54,9.395,3.131   C234.661,75.196,234.661,75.718,234.661,76.24z"/>
	<path fill-rule="evenodd" clip-rule="evenodd" fill="#C1BB9F" d="M229.965,102.855c0.491-2.115,2.228-2.989,1.564-6.262   c0.521,0,1.045,0,1.567,0c0,0.522,0,1.044,0,1.566c0.671,2.458,4.925,1.338,3.131,6.262c-1.045,0-2.088,0-3.131,0   C231.525,104.428,231.233,103.153,229.965,102.855z"/>
	<path fill-rule="evenodd" clip-rule="evenodd" fill="#8E652C" d="M237.793,105.987c-2.332,1.844-4.421,3.931-6.264,6.263   c-1.293-4.425,2.207-4.057,1.567-7.828c1.043,0,2.086,0,3.131,0C237.184,104.511,238.082,104.656,237.793,105.987z"/>
	<path fill-rule="evenodd" clip-rule="evenodd" fill="#C1BB9F" d="M206.48,96.593c5.674,0.683,0.367,11.227,7.828,6.262   c0.324,4.5-0.396,7.955-3.131,9.395c0.242-3.896-2.461-4.846-3.133-7.828c-1.044,0-2.085,0-3.13,0   C206.227,102.605,206.98,100.225,206.48,96.593z"/>
	<path fill-rule="evenodd" clip-rule="evenodd" fill="#443929" d="M211.177,126.342c0.428-5.494,5.832,3.929,6.263-1.566   c4.688,1.03-1.496,3.348,0,6.264c2.155,0.067,3.438-0.736,4.697-1.565c2.598,10.448,11.139,14.956,17.222,21.918   c-1.569-0.004-1.864,1.27-3.131,1.566c-0.332-1.758-1.739-2.438-3.131-3.131c0.288-1.331-0.61-1.478-1.567-1.566   c-3.316-3.469-6.077-7.489-9.393-10.959c-0.332-1.757-1.739-2.438-3.133-3.132c-0.345-1.221-1.31-1.821-3.131-1.565   C215.413,129.411,211.637,129.534,211.177,126.342z"/>
	<path fill-rule="evenodd" clip-rule="evenodd" fill="#8A7A5C" d="M255.017,127.906c1.219,0.347,1.819,1.312,1.564,3.133   c4.467,6.61-2.857,3.553-4.697,0C252.216,129.282,253.623,128.602,255.017,127.906z"/>
	<path fill-rule="evenodd" clip-rule="evenodd" fill="#443929" d="M256.581,192.101c2.344-5.085,2.801,7.08,6.264,1.565   c0,2.087,0,4.174,0,6.264c0,1.565,0,3.131,0,4.697c-2.461-0.151-5.431,0.208-4.697-3.132   C259.282,196.705,255.445,196.889,256.581,192.101z"/>
	<path fill-rule="evenodd" clip-rule="evenodd" fill="#724B26" d="M10.77,26.139c0,1.043,0,2.087,0,3.131   c-4.235,3.547,14.364,9.79,4.697,14.09c0.474-4.129-3.269-4.037-6.263-4.696c1.162-6.383-5.047-5.392-3.132-12.525   C7.638,26.139,9.205,26.139,10.77,26.139z"/>
	<path fill-rule="evenodd" clip-rule="evenodd" fill="#443929" d="M248.753,181.14c4.094,0.603,4.374,5.021,10.96,3.131   c0,1.045,0,2.09,0,3.134c-2.057-2.01-5.772-2.01-7.829,0c-0.956-0.09-1.854-0.235-1.565-1.567   C250.386,183.683,249.582,182.399,248.753,181.14z"/>
	<path fill-rule="evenodd" clip-rule="evenodd" fill="#1C1914" d="M139.156,148.261c0,0.522,0,1.044,0,1.566   c-15.124,11.635-27.094-25.43-46.97-25.052c-1.468-5.316-8.778-4.792-12.525-7.828c0-2.609,0-5.22,0-7.827   c4.441,3.298,14.73,1.98,15.656-3.133c-0.476,6.393,3.27,0.837,6.263,1.566c4.127,8.286,17.907,3.651,18.789,15.657   C134.864,123.328,140.386,132.416,139.156,148.261z"/>
	<path fill-rule="evenodd" clip-rule="evenodd" fill="#8E652C" d="M29.558,8.916c6.355-0.441,3.533,0.572,3.131,4.697   c-3.894-0.241-4.847,2.459-7.829,3.132c0-1.566,0-3.132,0-4.698c1.216-0.351,3.088-0.042,3.131-1.565   C28.081,9.527,28.226,8.628,29.558,8.916z"/>
</g>
<metadata><rdf:RDF><cc:Work><dc:format>image/svg+xml</dc:format><dc:type rdf:resource="http://purl.org/dc/dcmitype/StillImage"/><cc:license rdf:resource="http://creativecommons.org/licenses/publicdomain/"/><dc:publisher><cc:Agent rdf:about="http://openclipart.org/"><dc:title>Open Clip Art Library</dc:title></cc:Agent></dc:publisher><dc:title>eel nigiri sushi</dc:title><dc:date>2006-10-28T23:26:44</dc:date><dc:description>unagi nigiri or eel sushi</dc:description><dc:source>http://openclipart.org/detail/990/eel-nigiri-sushi-by-johnny_automatic</dc:source><dc:creator><cc:Agent><dc:title>johnny_automatic</dc:title></cc:Agent></dc:creator><dc:subject><rdf:Bag><rdf:li>clip art</rdf:li><rdf:li>clipart</rdf:li><rdf:li>eel</rdf:li><rdf:li>eel</rdf:li><rdf:li>food</rdf:li><rdf:li>food</rdf:li><rdf:li>image</rdf:li><rdf:li>japanese</rdf:li><rdf:li>japanese</rdf:li><rdf:li>media</rdf:li><rdf:li>nigiri</rdf:li><rdf:li>nigiri</rdf:li><rdf:li>public domain</rdf:li><rdf:li>sushi</rdf:li><rdf:li>sushi</rdf:li><rdf:li>svg</rdf:li><rdf:li>unagi</rdf:li><rdf:li>unagi</rdf:li></rdf:Bag></dc:subject></cc:Work><cc:License rdf:about="http://creativecommons.org/licenses/publicdomain/"><cc:permits rdf:resource="http://creativecommons.org/ns#Reproduction"/><cc:permits rdf:resource="http://creativecommons.org/ns#Distribution"/><cc:permits rdf:resource="http://creativecommons.org/ns#DerivativeWorks"/></cc:License></rdf:RDF></metadata></svg>
